<svg xmlns="http://www.w3.org/2000/svg">
  <symbol id="dollar" viewBox="0 0 39.997 40">
    <path d="M708.052,602a20.005,20.005,0,1,1-5.859-14.14A19.267,19.267,0,0,1,708.052,602Zm-1.641,0a18.271,18.271,0,1,0-5.351,13.008A17.712,17.712,0,0,0,706.411,602Zm-20.9-2.5a16.609,16.609,0,0,0,3.906,1.758,11.5,11.5,0,0,1,3.945,2.148,4.9,4.9,0,0,1,1.875,3.75,4.987,4.987,0,0,1-1.562,3.711,7.1,7.1,0,0,1-4.3,1.836v2.657h-1.8v-2.891q-4.218-.156-6.328-2.5l1.328-1.485.625.547a7.522,7.522,0,0,0,2.148,1.212,7.94,7.94,0,0,0,3.008.586,5.215,5.215,0,0,0,3.242-.976,3.042,3.042,0,0,0,1.289-2.539,3.415,3.415,0,0,0-1.758-2.89,14.115,14.115,0,0,0-3.906-1.8,10.857,10.857,0,0,1-3.906-2.07A4.436,4.436,0,0,1,681.57,597a4.955,4.955,0,0,1,1.641-3.632,6.616,6.616,0,0,1,4.14-1.836v-2.89h1.875v2.89a7.728,7.728,0,0,1,5.312,1.953l-1.172,1.719-.625-.469a7.788,7.788,0,0,0-1.875-.938,7.082,7.082,0,0,0-2.5-.469,5.208,5.208,0,0,0-3.32,1.016,3.077,3.077,0,0,0-1.289,2.5A3.135,3.135,0,0,0,685.515,599.5Z" transform="translate(-668.055 -581.999)" fill="#38c695" />
  </symbol>
  <symbol id="alarm" viewBox="0 0 39.834 40">
    <path d="M941.648,602a18.234,18.234,0,1,0,5.329-13.008A17.74,17.74,0,0,0,941.648,602Zm38.2,0a19.964,19.964,0,1,1-5.835-14.14A19.307,19.307,0,0,1,979.849,602Zm-7.625-7.656-1.323-1.328-10.97,11.173-7.625-7.812-1.323,1.328,8.947,8.828Zm-12.293-8.672A1.327,1.327,0,1,0,961.254,587a1.331,1.331,0,0,0-1.323-1.328Zm0,30a1.328,1.328,0,1,0,.934,2.265,1.328,1.328,0,0,0-.934-2.265Zm-14.938-15A1.327,1.327,0,1,0,946.316,602a1.331,1.331,0,0,0-1.323-1.328Zm29.876,0A1.327,1.327,0,1,0,976.192,602a1.331,1.331,0,0,0-1.323-1.328Z" transform="translate(-940.014 -581.999)" fill="#b27cf5" />
  </symbol>
  <symbol id="like" viewBox="0 0 39.737 39.952">
    <path d="M1234.206,601.976a19.293,19.293,0,0,1-5.83,14.114,19.743,19.743,0,0,1-28.077,0,20,20,0,0,1,0-28.229,19.743,19.743,0,0,1,28.077,0A19.3,19.3,0,0,1,1234.206,601.976Zm-1.586,0a17.758,17.758,0,0,0-5.364-12.99,18.174,18.174,0,0,0-25.839,0,18.41,18.41,0,0,0,0,25.978,18.174,18.174,0,0,0,25.839,0A17.755,17.755,0,0,0,1232.62,601.976ZM1226,594.847a1.03,1.03,0,0,1-.093,1.689l-13.619,13.317a1.006,1.006,0,0,1-.746.281,1.136,1.136,0,0,1-.839-.281l-5.317-5.346a1.058,1.058,0,0,1,0-1.688,1.046,1.046,0,0,1,1.679,0l4.477,4.5,12.779-12.473A1.046,1.046,0,0,1,1226,594.847Z" transform="translate(-1194.468 -581.999)" fill="#feb960" />
  </symbol>
  <symbol id="envelope" viewBox="0 0 55 38.684">
    <path d="M541.266,2280.279H494v-30.948h47.266Zm-1.719-29.228H495.719v27.508h43.828Zm-36.094-3.439h-1.719V2241.6H549v30.947h-6.016v-1.719h4.3v-27.508H503.453Zm33.516,14.614h-7.734v-8.6h7.734Zm-1.719-6.877h-4.3v5.158h4.3Zm-13.75,20.632h1.719V2253.63H521.5Zm-23.2-18.913h20.625v-1.719H498.3Zm0,4.3h18.047v-1.719H498.3Zm0,4.3H517.2v-1.72H498.3Z" transform="translate(-494 -2241.595)" fill="#fc5f45" />
  </symbol>
  <symbol id="maps" viewBox="0 0 55 49.001">
    <path d="M823.094,2243.207l18.906-7.2v41.479l-18.906,7.2-17.187-6.877-18.906,7.2v-41.479l18.906-7.2Zm-16.328,33.1,15.469,6.125v-37.717l-15.469-6.125Zm-18.047,6.125,16.328-6.232v-37.609l-16.328,6.232Zm51.563-43.842-16.328,6.232v37.609l16.328-6.232Z" transform="translate(-787 -2236.007)" fill="#38c695" />
  </symbol>
  <symbol id="image" viewBox="0 0 55 42.983">
    <path d="M1125.406,2282H1079v-36.105h46.406Zm-44.687-34.386V2270.5l11.172-11.283,12.246,13.969,8.486-5.157,11.064,9.563v-29.98Zm42.969,32.667v-.429l-11.279-9.672-8.7,5.158-11.817-13.539-11.172,11.067v7.415Zm-36.953-41.263H1134v36.105h-7.734V2273.4h6.016v-32.667h-43.828v4.3h-1.719Zm21.484,18.913a5.136,5.136,0,1,1,1.5,3.653A4.973,4.973,0,0,1,1108.219,2257.929Zm1.719,0a3.31,3.31,0,1,0,.967-2.472A3.345,3.345,0,0,0,1109.937,2257.929Z" transform="translate(-1079 -2239.016)" fill="#b27cf5" />
  </symbol>
  <symbol id="phone" viewBox="0 0 43.712 40">
    <path d="M1404.534,2281.016v-30h15.933v30Zm.937-.937h14.058v-4.687h-14.058Zm0-5.625h14.058V2255.7h-14.058Zm0-19.687h14.058v-2.812h-14.058Zm-28.716,26.25v-40h27.491v40Zm1.25-1.249H1403v-6.25H1378Zm0-7.5H1403v-25H1378Zm0-26.251H1403v-3.75H1378Zm33.5,32.715a1.413,1.413,0,1,1,1,.41A1.354,1.354,0,0,1,1411.5,2278.731Zm.527-1a.468.468,0,1,0,.469-.468A.414.414,0,0,0,1412.032,2277.734Zm-22.859.235a1.883,1.883,0,1,1,1.328.547A1.806,1.806,0,0,1,1389.172,2277.969Zm.7-1.328a.625.625,0,1,0,.625-.625A.552.552,0,0,0,1389.875,2276.641Zm20.75-22.812v-.937h3.749v.937ZM1388,2244.767v-1.25h5v1.25Z" transform="translate(-1376.754 -2241.016)" fill="#feb960" />
  </symbol>
  <symbol id="graf" viewBox="0 0 50.099 47.388">
    <path d="M502.323,5977.437h43.445v1.958h-45.4v-7.931h-3.914v-1.958h3.914v-7.931h-3.914v-1.958h3.914v-7.833h-3.914v-1.958h3.914v-7.93h-3.914v-1.958h3.914v-7.931h1.957v30.842l13.895-16.449,9.785,9.889,18.983-22.91,1.566,1.174L526,5959.03l-9.785-9.791-13.895,16.743Z" transform="translate(-496.452 -5932.007)" fill="#fc5f45" />
  </symbol>
  <symbol id="user" viewBox="0 0 46.185 50.062">
    <path d="M798.7,5959.971a17.4,17.4,0,0,0-5.235,12.711v4.009H815.48v1.956H791.409v-5.965a19.6,19.6,0,0,1,4.11-12.222,18.882,18.882,0,0,1,10.372-7.04,12.907,12.907,0,0,1-4.794-4.4,11.333,11.333,0,0,1-1.859-6.355,11.5,11.5,0,0,1,3.572-8.506,12.011,12.011,0,0,1,20.5,8.506,11.8,11.8,0,0,1-1.81,6.4,11.564,11.564,0,0,1-4.843,4.351,19.41,19.41,0,0,1,9.1,5.28h-3.033a17.508,17.508,0,0,0-11.253-4.009A17.3,17.3,0,0,0,798.7,5959.971Zm12.769-7.333a9.808,9.808,0,0,0,7.143-2.885,10.027,10.027,0,0,0,0-14.177,9.817,9.817,0,0,0-7.143-2.884,9.973,9.973,0,1,0,0,19.946Zm26.126,22.1h-6.067v5.964H829.57v-5.964H823.5v-2.054h6.067v-5.964h1.957v5.964h6.067Z" transform="translate(-791.409 -5930.638)" fill="#38c695" />
  </symbol>
  <symbol id="heart" viewBox="0 0 50.099 42.856">
    <path d="M1132.551,5947.686a12.958,12.958,0,0,1-3.914,9.485l-21.135,20.052-21.135-19.855a13.338,13.338,0,0,1-3.914-9.633,13.01,13.01,0,0,1,3.914-9.534,13.215,13.215,0,0,1,9.785-3.834,12.738,12.738,0,0,1,9.394,3.834,30.856,30.856,0,0,1,2.153,2.949,11.344,11.344,0,0,1,2.153-2.949,13.424,13.424,0,0,1,18.787,0A12.961,12.961,0,0,1,1132.551,5947.686Zm-2.153-.246a11.015,11.015,0,0,0-3.327-8.06,10.514,10.514,0,0,0-8.024-3.342,11.027,11.027,0,0,0-8.121,3.342q-.784.984-1.663,2.261l-1.761,2.949-1.761-2.949a18,18,0,0,0-1.663-2.261,11.582,11.582,0,0,0-16.341,16.415l19.765,18.971,19.766-18.971a11.322,11.322,0,0,0,3.131-8.355Z" transform="translate(-1082.452 -5934.366)" fill="#b27cf5" />
  </symbol>
  <symbol id="gift" viewBox="0 0 50.043 44.344">
    <path d="M1423.49,5951.307h-1.955v26.979H1375.4v-26.979h-1.955v-7.75h15.932a5.835,5.835,0,0,1,.2-7.946,5.567,5.567,0,0,1,4.105-1.668,5.9,5.9,0,0,0,9.578,0,5.771,5.771,0,0,1,4.3,9.615h15.932Zm-22.92-14.323a3.851,3.851,0,0,0-1.124,2.747v3.826h3.812a3.824,3.824,0,0,0,2.737-1.128,3.61,3.61,0,0,0,1.173-2.7,3.847,3.847,0,0,0-3.91-3.924A3.583,3.583,0,0,0,1400.57,5936.984Zm-9.627,5.444a3.822,3.822,0,0,0,2.737,1.128h3.812v-3.826a3.857,3.857,0,0,0-1.124-2.747,3.587,3.587,0,0,0-2.688-1.178,3.847,3.847,0,0,0-3.91,3.924A3.61,3.61,0,0,0,1390.942,5942.429Zm-15.541,6.917h22.089v-3.827H1375.4Zm1.857,27.076h20.232v-25.115h-20.232Zm42.419-25.115h-20.232v25.115h20.232Zm1.857-5.788h-22.089v3.827h22.089Z" transform="translate(-1373.447 -5933.942)" fill="#feb960" />
  </symbol>
  <symbol id="grafic" viewBox="0 0 48.004 48.039">
    <path d="M462.26,10224.008v48.039h-48v-48.039ZM416.247,10226v37.377l5.854-6.8,5.971,3.984,9.952-14.062,9.015,7.148,13.23-18.982V10226Zm44.023,44.056v-31.87l-12.762,18.4-9.016-7.146-9.952,13.825-6.088-3.983-6.206,7.146v3.633Z" transform="translate(-414.257 -10224.008)" fill="#fc5f45" />
  </symbol>
  <symbol id="setting" viewBox="0 0 45.846 48.039">
    <path d="M850.043,10232.268a4.829,4.829,0,0,1-2.865,1.7v34.1h-1.988v-34.1a4.726,4.726,0,0,1-2.865-1.758,4.965,4.965,0,0,1-1.111-3.163,5,5,0,0,1,5.029-5.038,4.72,4.72,0,0,1,3.45,1.464,5.158,5.158,0,0,1,.351,6.8Zm-1.754-1.055a3.117,3.117,0,0,0,0-4.335,2.8,2.8,0,0,0-2.047-.879,3.047,3.047,0,1,0,0,6.094A2.806,2.806,0,0,0,848.288,10231.213Zm-34.151,32.632a4.976,4.976,0,0,1,1.111,3.163,5,5,0,0,1-5.029,5.039,4.707,4.707,0,0,1-3.45-1.465,5,5,0,0,1,2.515-8.5v-34.1h1.988v34.1A4.731,4.731,0,0,1,814.138,10263.845Zm-1.754,5.331a3.046,3.046,0,0,0-2.164-5.214,2.8,2.8,0,0,0-2.047.879,3.117,3.117,0,0,0,0,4.335,2.8,2.8,0,0,0,2.047.879A2.938,2.938,0,0,0,812.384,10269.176Zm19.765-24.312a5.06,5.06,0,0,1,0,6.327,4.732,4.732,0,0,1-2.865,1.758v15.115h-2.105v-15.115a4.727,4.727,0,0,1-2.865-1.758,5.06,5.06,0,0,1,0-6.327,4.731,4.731,0,0,1,2.865-1.758v-15.114h2.105v15.114A4.736,4.736,0,0,1,832.149,10244.863Zm-.877,3.163a3.212,3.212,0,1,0-.936,2.109A2.922,2.922,0,0,0,831.272,10248.026Z" transform="translate(-805.308 -10224.008)" fill="#38c695" />
  </symbol>
  <symbol id="ult" viewBox="0 0 48.008 48.039">
    <path d="M1194.257,10252.011h20.023v20.036h-20.023Zm1.991,18.044h16.042V10254h-16.042Zm35.948-34.565-14.637,14.764-1.405-1.406,14.754-14.763h-12.646v-1.991h15.925v15.934H1232.2Zm10.07-11.481v48.039h-24v-1.992h22.014V10226h-44.027v22.027h-1.991v-24.019Z" transform="translate(-1194.257 -10224.008)" fill="#b27cf5" />
  </symbol>
  <symbol id="screen" viewBox="0 0 51.985 46.753">
    <path d="M440.312,10483.939v3.857l9.367,5.26-.937,1.753-9.484-5.259-9.484,5.259-.937-1.753,9.367-5.26v-3.857H413.266v-35.883h51.985v35.883Zm-25.056-1.987h48v-31.908h-48Zm27.046-26.182,1.873.585-5.5,18.467-6.44-8.882-4.215,8.3-5.62-11.454-3.161,11.688-1.99-.468,4.566-16.715,6.205,12.507,3.981-7.715,5.971,8.3Zm15.221,5.961a5.875,5.875,0,0,1,1.756,4.325,5.734,5.734,0,0,1-1.756,4.208,5.9,5.9,0,0,1-4.332,1.753,5.991,5.991,0,0,1-5.971-5.961,5.875,5.875,0,0,1,1.756-4.325,5.756,5.756,0,0,1,4.215-1.752A5.9,5.9,0,0,1,457.523,10461.731Zm-1.464,7.13a3.815,3.815,0,0,0,0-5.61,4.041,4.041,0,0,0-2.869-1.169,3.994,3.994,0,0,0-3.981,3.975,3.727,3.727,0,0,0,1.229,2.8,3.894,3.894,0,0,0,2.751,1.169A4.029,4.029,0,0,0,456.06,10468.861Z" transform="translate(-413.266 -10448.057)" fill="#feb960" />
  </symbol>
  <symbol id="calendar" viewBox="0 0 47.951 47.922">
    <path d="M853.206,10447.473v47.922H805.255v-47.922Zm-45.963,1.987v9h43.975v-9Zm43.975,43.947v-32.961H807.244v32.961Zm-30.993-37.87h3.041v-3.039h-3.041Zm14.97,0h3.041v-3.039H835.2Zm-12.748,11.688H824.2v15.662H822.1v-11.1h-3.859v-1.637h.351c1.012-.076,1.7-.135,2.047-.175a1.953,1.953,0,0,0,1.111-.643,2.8,2.8,0,0,0,.7-1.754Zm15.613,6.545a5.5,5.5,0,0,1,1.462,3.975,5.217,5.217,0,0,1-1.637,3.915,5.38,5.38,0,0,1-3.86,1.578,5.257,5.257,0,0,1-3.8-1.4,4.794,4.794,0,0,1-1.462-3.624v-.35h2.105v.35a2.979,2.979,0,0,0,.935,2.28,3.289,3.289,0,0,0,2.339.876,2.889,2.889,0,0,0,2.4-1.11,4.113,4.113,0,0,0,.877-2.63,3.527,3.527,0,0,0-.935-2.513,3.225,3.225,0,0,0-2.456-.993,3.4,3.4,0,0,0-3.041,1.636l-.117.117h-1.754l1.637-8.416h8.07v1.987h-6.549l-.7,3.624a4.394,4.394,0,0,1,2.573-.819A5.191,5.191,0,0,1,838.061,10473.771Z" transform="translate(-805.255 -10447.473)" fill="#fc5f45" />
  </symbol>
  <symbol id="medal" viewBox="0 0 35.362 54.936">
    <path d="M1234.132,10471.843a17.28,17.28,0,0,1,2.693,9.409,17.681,17.681,0,0,1-35.362,0,17.265,17.265,0,0,1,2.693-9.409,16.8,16.8,0,0,1,7.143-6.371q-4.918-11.8-4.918-13.908v-7.6h25.526v7.6q0,1.638-4.918,13.908A16.825,16.825,0,0,1,1234.132,10471.843Zm-21.077-7.188a18.537,18.537,0,0,1,6.089-1.052,16.9,16.9,0,0,1,5.972,1.052q4.8-11.221,4.8-13.091v-5.61h-9.836v13.441h-1.991v-13.441h-9.719v5.61q0,1.521,4.684,13.091Zm21.779,16.6a15,15,0,0,0-4.625-11.1,15.709,15.709,0,0,0-22.131,0,15.642,15.642,0,0,0,0,22.208,15.709,15.709,0,0,0,22.131,0A15,15,0,0,0,1234.834,10481.252Zm-3.864,0a11.783,11.783,0,1,1-3.454-8.357A11.371,11.371,0,0,1,1230.97,10481.252Zm-1.99,0a9.523,9.523,0,0,0-2.869-6.9,9.765,9.765,0,0,0-13.934,0,9.723,9.723,0,0,0,0,13.792,9.767,9.767,0,0,0,13.934,0A9.516,9.516,0,0,0,1228.98,10481.252Z" transform="translate(-1201.463 -10443.966)" fill="#38c695" />
  </symbol>
  <symbol id="facebook" viewBox="0 0 29.766 30.005">
    <path d="M1327.18,13568.938a3.531,3.531,0,0,1,.7,2.52q0,15.643-.059,23.5a2.739,2.739,0,0,1-3.281,3.281h-9.668a2.175,2.175,0,0,1-1.406-.353,1.6,1.6,0,0,1-.352-1.347v-5.069q0-3.368.059-5.068a1.828,1.828,0,0,0-.293-1.2,1.354,1.354,0,0,0-1.113-.263,12.594,12.594,0,0,1-2.461,0q-.7,0-.7-.528c0-.39.234-.586.7-.586h2.7a1.131,1.131,0,0,0,.967-.234,1.207,1.207,0,0,0,.205-.937,22.813,22.813,0,0,1,0-3.281,3.443,3.443,0,0,1,1.23-2.782,3.815,3.815,0,0,1,3.047-.615,7.984,7.984,0,0,1,2.637.762.17.17,0,0,1,.117.059q.761.352.586.819-.294.646-1.23.234a7.266,7.266,0,0,0-2.93-.7,1.94,1.94,0,0,0-2.109,1.7,6.069,6.069,0,0,0-.205,1.349c-.02.468-.02,1,0,1.582s.029,1.035.029,1.347v.234c.038.313.352.469.938.469h4.512c.664,0,1,.2,1,.586q0,.822-1.055.7-1.406,0-4.453-.116a.907.907,0,0,0-.791.176,1.254,1.254,0,0,0-.205.82q.117,4.863,0,9.785,0,1.113,1.055,1.113,1.406,0,2.93.028t3.4.089q1.875.059,2.93.058a2.129,2.129,0,0,0,1.523-.381,2.723,2.723,0,0,0,.41-1.611l.176-23.2q0-1.581-.352-1.9a3.833,3.833,0,0,0-1.992-.381q-7.559-.233-22.793-.234-1.406,0-1.7.323a3.653,3.653,0,0,0-.41,1.787q0,.057-.176,23.086,0,1.581.381,1.934a3.216,3.216,0,0,0,1.9.351q3.4,0,5.039.06,1.23,0,1.289.586,0,.7-1.23.7h-5.918a2.524,2.524,0,0,1-2.637-2.754v-12.129h.059v-11.954a3.431,3.431,0,0,1,.7-2.461,3.168,3.168,0,0,1,2.4-.644h23.379A3.534,3.534,0,0,1,1327.18,13568.938Z" transform="translate(-1298.117 -13568.229)" fill="#fff" />
  </symbol>
  <symbol id="twitter" viewBox="0 0 30.044 25.333">
    <path d="M1372.883,13574.327a4.249,4.249,0,0,1-.879,1.289,3.564,3.564,0,0,0-1.26,1.377,6.322,6.322,0,0,0-.586,1.523,17.15,17.15,0,0,0-.264,1.788,17.073,17.073,0,0,1-4.307,9.668,17.195,17.195,0,0,1-21.709,3.4,1.388,1.388,0,0,0-.322-.175,1.319,1.319,0,0,1-.322-.176,2.354,2.354,0,0,1-.205-.265.267.267,0,0,1,.029-.381.489.489,0,0,1,.205-.321.4.4,0,0,1,.293-.06c.1.021.214.04.352.06a2.378,2.378,0,0,0,.322.028,11.345,11.345,0,0,0,5.391-.469q.879-.233,1.055.294.117.527-.7.762-.527.176-1.553.439t-1.611.439a14.751,14.751,0,0,0,6.387,1.172,15.607,15.607,0,0,0,10.547-4.424,17.428,17.428,0,0,0,5.039-9.756,4.965,4.965,0,0,0,.117-.82v-1.2c0-.1.009-.293.029-.585a1.783,1.783,0,0,1,.117-.616,4.98,4.98,0,0,0,.205-.5,1.163,1.163,0,0,1,.322-.5q.2-.174.5-.38a5.191,5.191,0,0,1,.645-.382.862.862,0,0,1-.234-.176l-.117-.059a2.166,2.166,0,0,0-.557.118,1.615,1.615,0,0,1-.645.087.59.59,0,0,1-.439-.381.523.523,0,0,1-.029-.556,1.582,1.582,0,0,1,.5-.41,2.531,2.531,0,0,0,.469-.323l.352-.527-.176-.176a3.494,3.494,0,0,1-3.516-.586,4.748,4.748,0,0,0-5.244-.234,5.088,5.088,0,0,0-2.842,4.57,4.247,4.247,0,0,1-.41,2.08q-.294.265-2.168-.088a19.432,19.432,0,0,1-9.844-5.273,3.68,3.68,0,0,0-.439,2.813,6,6,0,0,0,1.494,2.929,2.5,2.5,0,0,0,.469.323.97.97,0,0,1,.41.352,1.281,1.281,0,0,1,0,.556.688.688,0,0,1-.439.411,1.378,1.378,0,0,1-.7-.088,2.338,2.338,0,0,0-.615-.146,5.649,5.649,0,0,0-.645-.177,5.414,5.414,0,0,0,3.281,4.277l.469.118a1.1,1.1,0,0,1,.645.293.612.612,0,0,1,.059.469c-.079.351-.586.566-1.523.644l-.586.118a5.174,5.174,0,0,0,3.574,2.812h.41a3.209,3.209,0,0,1,.352.059,1.876,1.876,0,0,1,.41.118.754.754,0,0,1,.234.2.529.529,0,0,1,.059.44q-.118.645-1.23.352a6.217,6.217,0,0,1-4.395-2.872,2.73,2.73,0,0,1-.234-.321,4.02,4.02,0,0,1-.234-.381c-.039-.078-.1-.2-.176-.353a.929.929,0,0,1-.117-.409,3.242,3.242,0,0,1,.029-.41,1.426,1.426,0,0,1,.146-.469,1.128,1.128,0,0,1,.029-.352q.029-.059-.264-.294l-.234-.175a6.616,6.616,0,0,1-1.875-3.75,3.1,3.1,0,0,0-.059-.353,2.812,2.812,0,0,1-.059-.351v-.265a.4.4,0,0,1,.088-.293,1.075,1.075,0,0,1,.264-.176,1.937,1.937,0,0,1,.469-.146c.352-.037.39-.234.117-.585-.079-.078-.117-.137-.117-.177a6.753,6.753,0,0,1-.234-5.508q.352-.995.732-1.054t1.084.7a16.75,16.75,0,0,0,8.965,5.273,1.892,1.892,0,0,0,1.23-.03q.352-.2.41-1.083a6.964,6.964,0,0,1,3.457-5.333,5.379,5.379,0,0,1,5.8,0,4.154,4.154,0,0,0,4.629,0q.761-.352,1.113,0,.292.294-.117,1.055a3.018,3.018,0,0,1-.234.587,4.345,4.345,0,0,0-.234.527.54.54,0,0,0,.645.058.985.985,0,0,1,.234-.058h0q.937,0,.527.819Z" transform="translate(-1342.963 -13570.49)" fill="#fff" />
  </symbol>
  <symbol id="instagram" viewBox="0 0 30 30">
    <path d="M1418,13595.3a3.1,3.1,0,0,1-.645,2.228,3.281,3.281,0,0,1-2.227.7h-24.316a2.491,2.491,0,0,1-2.812-2.754v-5.977q0-1.055.645-1.055.527.059.527,1.055v5.684a1.631,1.631,0,0,0,1.816,1.874h24.023a1.58,1.58,0,0,0,1.816-1.758v-9.434a1.378,1.378,0,0,0-.234-.908.933.933,0,0,0-.82-.2,1.675,1.675,0,0,1-.879,0,4.918,4.918,0,0,0-3.076.322,4.236,4.236,0,0,0-1.787,2.548,5.653,5.653,0,0,1-2.842,3.341,7.132,7.132,0,0,1-4.365,1.055,8.857,8.857,0,0,1-4.629-1.875,7.118,7.118,0,0,1-2.578-3.926,1.686,1.686,0,0,0-1.992-1.465h-4.336q-1.289.117-1.289-1.114v-13.124q.117-2.285,2.754-2.285h24.492a2.434,2.434,0,0,1,2.754,2.754v24.315Zm-10.049-6.533a6.476,6.476,0,0,0,1.9-4.774,6.146,6.146,0,0,0-1.9-4.6,7.093,7.093,0,0,0-4.834-1.963,6.152,6.152,0,0,0-4.658,1.992,6.449,6.449,0,0,0,.059,9.433,5.69,5.69,0,0,0,4.658,1.817A6.476,6.476,0,0,0,1407.951,13588.771Zm8.613-5.536a1.257,1.257,0,0,0,.264-1.055q-.118-5.508,0-10.957a1.977,1.977,0,0,0-.439-1.437,1.92,1.92,0,0,0-1.494-.381H1390.93a1.953,1.953,0,0,0-1.348.381,1.748,1.748,0,0,0-.41,1.318v11.192a1.248,1.248,0,0,0,.264.938,1.2,1.2,0,0,0,.908.176q3.1,0,3.516.059a1.377,1.377,0,0,0,1.172-.118,1.964,1.964,0,0,0,.527-1.112,7.731,7.731,0,0,1,2.871-4.424,7.209,7.209,0,0,1,4.863-1.611,8.217,8.217,0,0,1,4.717,1.7,7.62,7.62,0,0,1,2.783,4.278,1.393,1.393,0,0,0,1.523,1.289,16.63,16.63,0,0,1,3.164-.059A1.3,1.3,0,0,0,1416.564,13583.234Zm-2.08-11.134a4.886,4.886,0,0,1,.352,2.461,4,4,0,0,1-.469,2.432,3.4,3.4,0,0,1-2.285.5,3.518,3.518,0,0,1-2.373-.527,4.229,4.229,0,0,1-.5-2.579q0-1.991.41-2.343a5.446,5.446,0,0,1,2.637-.352Q1414.132,13571.691,1414.484,13572.1Zm-.762,2.345a2.421,2.421,0,0,0-.381-1.377q-.323-.381-1.26-.147a1.69,1.69,0,0,0-1.348.147,1.51,1.51,0,0,0-.352,1.317,3.224,3.224,0,0,0,.322,1.465q.264.412,1.26.353a2.254,2.254,0,0,0,1.377-.41,1.822,1.822,0,0,0,.381-1.348Zm-8.086,13.477c-.039.156-.029.263.029.321s.019.128-.117.206a1.73,1.73,0,0,0-.234.146,1.806,1.806,0,0,1-.264.146l-.234.059a5.5,5.5,0,0,1-1.816.352,4.968,4.968,0,0,1-3.984-2.021,4.469,4.469,0,0,1-1-4.249,1.758,1.758,0,0,1,.059-.293,1.783,1.783,0,0,1,.117-.351.58.58,0,0,1,.176-.206.411.411,0,0,1,.352-.028q.585.059.469,1.112a3.831,3.831,0,0,0,1.23,3.838,4.227,4.227,0,0,0,4.043.733q1-.352,1.172.234Z" transform="translate(-1388 -13568.234)" fill="#fff" />
  </symbol>
  <symbol id="google" viewBox="0 0 27.891 30">
    <path d="M1451.281,13590.851a6.267,6.267,0,0,1-1.055,4.98,5.85,5.85,0,0,1-3.164,1.935,17.218,17.218,0,0,1-2.285.41h-2.93a7.082,7.082,0,0,1-1.055-.118,16.3,16.3,0,0,1-3.809-.937,5.1,5.1,0,0,1-2.637-2.636,10.029,10.029,0,0,1-.293-1.23v-1.173a.522.522,0,0,0,.059-.234,3.814,3.814,0,0,1,.469-1.523,2.236,2.236,0,0,1,.234-.409q.292-.117.615.409a1,1,0,0,1,.146.938,3.934,3.934,0,0,0-.234,2.05,3.185,3.185,0,0,0,1.758,2.462,5.5,5.5,0,0,0,1.875.7,18.076,18.076,0,0,0,5.1.41,8.881,8.881,0,0,0,2.813-.41,4.518,4.518,0,0,0,2.578-1.7,4.918,4.918,0,0,0,.645-2.7,4.11,4.11,0,0,0-1.465-3.339.4.4,0,0,0-.293-.118,49.752,49.752,0,0,0-5.8-.409,16.626,16.626,0,0,0-3.691.527,1.25,1.25,0,0,0-.322.059,1.9,1.9,0,0,0-.322.117.552.552,0,0,1-.381-.234,1.533,1.533,0,0,1-.293-.469.314.314,0,0,1,.029-.353,18.689,18.689,0,0,1,7.031-.878c.156,0,.41.02.762.059a7.871,7.871,0,0,0,.82.058,7.486,7.486,0,0,0-.586-.5q-.411-.322-.586-.439a2.8,2.8,0,0,1-1.113-2.871.245.245,0,0,0-.059-.177h-.117a7.428,7.428,0,0,1-2.637,0,6.649,6.649,0,0,1-5.449-4.453,8.474,8.474,0,0,1-.41-4.159,6.953,6.953,0,0,1,1.23-3.281,7.113,7.113,0,0,1,4.395-2.7q.293-.059.791-.146a4.7,4.7,0,0,1,.732-.088,67.7,67.7,0,0,1,7.969,0q.233,0,.352.41a.568.568,0,0,1-.059.556.59.59,0,0,1-.527.265h-2.754a.665.665,0,0,0-.293.058,1.9,1.9,0,0,1,.322.235,1.111,1.111,0,0,1,.264.292,7.106,7.106,0,0,1,2.4,4.512,7.737,7.737,0,0,1-1.758,6.035,13.758,13.758,0,0,1-1.934,1.465,6.705,6.705,0,0,0-.7.587,1.358,1.358,0,0,0-.176,2.167,4.708,4.708,0,0,0,1.172.938q2.578,1.759,2.7,1.876h0a5.313,5.313,0,0,1,1.934,3.163Zm-3.75-11.308a5.333,5.333,0,0,0,1.289-3.105,5.655,5.655,0,0,0-.586-3.575,5.834,5.834,0,0,0-4.219-3.223,7.794,7.794,0,0,0-4.687.762,4.6,4.6,0,0,0-2.461,2.813,7.279,7.279,0,0,0-.469,2.813,6.247,6.247,0,0,0,.82,3.1,5.854,5.854,0,0,0,5.449,2.872,7.225,7.225,0,0,0,4.863-2.461Zm14.414,2.871v.352a.889.889,0,0,1-.879.469h-3.105c-.274,0-.41.116-.41.351v3.165q0,.877-.586.878a.768.768,0,0,1-.645-.878v-3.223a.259.259,0,0,0-.293-.293H1452.8q-.821,0-.82-.587,0-.643.82-.644h3.164q.352,0,.352-.411v-3.4q.117-.645.645-.528.585,0,.586.528v3.516q0,.293.352.293h3.164a1.011,1.011,0,0,1,.879.41Z" transform="translate(-1434.055 -13568.176)" fill="#fff" />
  </symbol>
</svg>